<svg xmlns="http://www.w3.org/2000/svg" viewBox="0 0 669.23 153.37"><defs><style>.cls-1{fill:#21203d;}.cls-2{fill:#5d1feb;}</style></defs><g id="Layer_2" data-name="Layer 2"><g id="Layer_1-2" data-name="Layer 1"><path class="cls-1" d="M99,135.64H0V2.74H97.62V38.21H39.44V52.4H84.18V85.23H39.44v14.94H99Z"/><path class="cls-1" d="M200.45,2.74V34.51l39.44,22.66V2.74Zm76.61,0v76a30.27,30.27,0,0,1-2.27,12.15A18.39,18.39,0,0,1,268.27,99a17.31,17.31,0,0,1-9.94,2.88,16.23,16.23,0,0,1-13.48-6.33q-4.44-5.67-4.9-14.66L203,102.29a50.94,50.94,0,0,0,4.32,10,48.6,48.6,0,0,0,20,19.25q13.09,7,31,7,18.07,0,31.22-7a49,49,0,0,0,20.1-19.25,55.25,55.25,0,0,0,7-27.76V2.74Z"/><path class="cls-1" d="M381,84.47a41.2,41.2,0,0,0,13.57-14.66q4.88-8.89,4.87-21.1a46.93,46.93,0,0,0-6-23.79A42.3,42.3,0,0,0,376.69,8.61,50.65,50.65,0,0,0,352.1,2.74H332.52V38.31h16.26a11.22,11.22,0,0,1,7.43,2.74,9.57,9.57,0,0,1,3.26,7.76A11.45,11.45,0,0,1,358,54.39a11.65,11.65,0,0,1-4,4.26,10.32,10.32,0,0,1-5.58,1.6H332.52V94.68H343.2l33.72,58.69,11.26-18.08,22.05.68Z"/><path class="cls-1" d="M450.83,128.78a68.84,68.84,0,0,1-34.15-59.92A67.94,67.94,0,0,1,450.83,9.27a71.94,71.94,0,0,1,70.33,0,68,68,0,0,1,34.1,59.59,68.93,68.93,0,0,1-34.1,59.92,71,71,0,0,1-70.33,0ZM500.49,96.1a30.86,30.86,0,0,0,10.74-11.3,31.73,31.73,0,0,0,4-15.84,31.28,31.28,0,0,0-4.07-15.75A30.8,30.8,0,0,0,500.39,42a26.87,26.87,0,0,0-14.28-4.11A27.29,27.29,0,0,0,471.69,42a31.51,31.51,0,0,0-15,27,31.82,31.82,0,0,0,15,27.14,27,27,0,0,0,28.8,0Z"/><path class="cls-1" d="M562.82,113.7,587.7,87.59a66.15,66.15,0,0,0,15.18,10.55,34.24,34.24,0,0,0,14.9,3.45q11.44,0,11.44-6.43a6.74,6.74,0,0,0-1-3.6q-1-1.61-5.16-3.83a76.27,76.27,0,0,0-13-4.87,72.73,72.73,0,0,1-26.44-14.57q-11.31-9.83-11.3-28.18a43.71,43.71,0,0,1,4.49-19.68q4.49-9.07,14.66-14.75T617.87,0q15.71,0,27.72,5a76.71,76.71,0,0,1,22.32,14.48l-22,27.14A45.05,45.05,0,0,0,634,39.07a34.37,34.37,0,0,0-14.42-3.32q-4.37,0-6,1.52a5.58,5.58,0,0,0-1.66,4.35,3.2,3.2,0,0,0,1.47,2.55,22,22,0,0,0,4.35,2.42q2.88,1.27,9.32,3.73l2.74,1A107.31,107.31,0,0,1,651.64,62a40.23,40.23,0,0,1,13.1,13.67q4.5,8,4.49,18.92a42.14,42.14,0,0,1-6.1,22.7,40.65,40.65,0,0,1-17.54,15.32q-11.45,5.49-26.77,5.49Q586.46,138.1,562.82,113.7Z"/><polygon class="cls-2" points="229.45 69.05 199.48 86.43 120.02 132.51 119.77 6.01 199.45 51.81 229.45 69.05"/></g></g></svg>